# xmcd CD database file
#
# Track frame offsets:
#	150
#	23425
#	37160
#	59037
#	84747
#	117307
#	149495
#	172632
#	189252
#	219175
#	241805
#
# Disc length: 3593 seconds
#
# Revision: 0
# Processed by: cddbd v1.5.1PL2 Copyright (c) Steve Scherf et al.
# Submitted via: CDex 1.51
#
DISCID=8f0e070b
DTITLE=the fascinations - the fascinations
DYEAR=2004
DGENRE=Jazz
TTITLE0=fascinated groove (la paresse...)
TTITLE1=just you, just me
TTITLE2=i make a fool of myself
TTITLE3=bluesette
TTITLE4=stone cold
TTITLE5=stinger
TTITLE6=fascinated blues
TTITLE7=just you, just me...take 2
TTITLE8=the beauties of nature
TTITLE9=i make a fool of myself Hase Hajimu remix
TTITLE10=fascinated groove (la paresse...) IWAMURA manabu remix
EXTD=YEAR: 2004
EXTT0=
EXTT1=
EXTT2=
EXTT3=
EXTT4=
EXTT5=
EXTT6=
EXTT7=
EXTT8=
EXTT9=
EXTT10=
PLAYORDER=
